<svg 
 xmlns="http://www.w3.org/2000/svg"
 xmlns:xlink="http://www.w3.org/1999/xlink"
 width="490px" height="489px">
<path fill-rule="evenodd"  opacity="0.251" fill="rgb(12, 184, 182)"
 d="M437.987,477.956 C440.683,477.956 442.882,480.077 443.014,482.747 L489.999,482.747 L489.999,483.253 L443.014,483.253 C442.882,485.924 440.683,488.049 437.987,488.049 C435.207,488.049 432.955,485.789 432.955,483.000 C432.955,481.224 433.871,479.662 435.255,478.763 L406.361,428.598 C405.748,428.909 405.054,429.084 404.320,429.084 C401.903,429.084 399.928,427.188 399.796,424.800 L343.059,424.800 C342.927,428.050 340.256,430.644 336.981,430.644 C333.622,430.644 330.901,427.914 330.901,424.546 C330.901,422.380 332.026,420.478 333.723,419.396 L305.514,370.417 C304.854,370.755 304.106,370.946 303.313,370.946 C300.635,370.946 298.467,368.773 298.467,366.092 C298.467,363.408 300.635,361.233 303.313,361.233 C304.106,361.233 304.853,361.424 305.514,361.763 L333.879,312.512 C332.274,311.485 331.210,309.684 331.210,307.632 C331.210,305.583 332.274,303.783 333.879,302.755 L304.911,252.461 C304.428,252.697 303.886,252.831 303.313,252.831 C301.386,252.831 299.810,251.329 299.680,249.432 L242.202,249.432 C242.070,252.766 239.332,255.428 235.974,255.428 C232.532,255.428 229.741,252.630 229.741,249.179 C229.741,246.957 230.898,245.006 232.641,243.898 L205.322,196.463 C204.421,196.940 203.396,197.210 202.307,197.210 C198.816,197.210 195.972,194.441 195.839,190.975 L140.054,190.975 C139.922,193.677 137.697,195.828 134.968,195.828 C132.154,195.828 129.876,193.541 129.876,190.721 C129.876,188.921 130.803,187.342 132.205,186.432 L103.033,135.782 C102.511,136.042 101.923,136.187 101.301,136.187 C99.223,136.187 97.527,134.569 97.397,132.520 L33.814,132.520 L0.074,73.935 L0.001,73.809 L33.668,15.355 L25.379,0.960 L25.965,0.960 L34.107,15.101 L96.947,15.101 C97.078,12.805 98.977,10.983 101.301,10.983 C102.004,10.983 102.669,11.150 103.257,11.447 L101.153,15.101 L101.154,15.101 L103.257,11.447 L109.296,0.960 L109.882,0.960 L103.696,11.702 C104.879,12.483 105.660,13.828 105.660,15.355 C105.660,16.880 104.879,18.224 103.696,19.005 L123.940,54.155 L131.329,66.981 C132.413,66.401 133.652,66.070 134.968,66.070 C139.146,66.070 142.549,69.400 142.684,73.556 L194.671,73.556 C194.806,69.443 198.172,66.154 202.307,66.154 C203.608,66.154 204.833,66.480 205.904,67.054 L202.160,73.556 L202.161,73.556 L205.904,67.054 L224.508,34.755 L233.059,19.909 C231.567,18.945 230.580,17.265 230.580,15.355 C230.580,13.444 231.568,11.765 233.060,10.803 L227.393,0.960 L227.979,0.960 L233.499,10.548 C234.241,10.164 235.082,9.946 235.974,9.946 C238.870,9.946 241.235,12.232 241.367,15.101 L297.018,15.101 C297.088,13.341 297.875,11.767 299.096,10.663 L293.507,0.960 L296.554,0.960 L301.382,9.342 C301.990,9.145 302.639,9.040 303.313,9.040 C304.370,9.040 305.366,9.300 306.241,9.761 L311.310,0.960 L311.895,0.960 L306.680,10.016 C308.442,11.136 309.613,13.107 309.613,15.355 C309.613,17.211 308.814,18.880 307.541,20.035 L326.876,53.603 L413.111,53.603 L433.435,18.318 C432.881,17.464 432.559,16.447 432.559,15.355 C432.559,13.432 433.554,11.743 435.056,10.774 L429.406,0.960 L429.991,0.960 L435.496,10.519 C436.242,10.132 437.089,9.912 437.987,9.912 C438.083,9.912 438.178,9.915 438.272,9.919 L443.432,0.960 L446.479,0.960 L440.852,10.731 C442.324,11.651 443.325,13.257 443.410,15.101 L489.999,15.101 L489.999,15.610 L443.410,15.610 C443.276,18.497 440.898,20.795 437.987,20.795 C437.090,20.795 436.243,20.577 435.497,20.190 L415.442,55.007 L436.955,92.357 L458.513,129.786 L489.999,129.786 L489.999,132.013 L489.999,132.433 L489.999,132.520 L458.464,132.520 L436.955,169.865 L415.396,207.296 L435.439,242.094 C436.235,241.808 437.093,241.651 437.987,241.651 C442.049,241.651 445.358,244.884 445.494,248.922 L489.999,248.922 L489.999,249.432 L445.494,249.432 C445.421,251.636 444.404,253.601 442.833,254.931 L458.513,282.157 L489.999,282.157 L489.999,284.801 L456.990,284.801 L440.550,256.257 C439.750,256.549 438.887,256.708 437.987,256.708 C436.710,256.708 435.507,256.387 434.453,255.824 L415.786,288.234 L406.088,305.070 C406.899,305.634 407.430,306.572 407.430,307.632 C407.430,308.696 406.899,309.634 406.088,310.196 L426.960,346.434 L434.159,358.932 C435.299,358.318 436.603,357.970 437.987,357.970 C442.375,357.970 445.947,361.468 446.083,365.834 L489.999,365.834 L489.999,366.344 L446.083,366.344 C445.949,370.709 442.377,374.209 437.987,374.209 C436.603,374.209 435.299,373.861 434.159,373.247 L415.786,405.145 L406.799,420.748 C408.033,421.559 408.846,422.956 408.846,424.546 C408.846,426.135 408.033,427.533 406.799,428.343 L435.693,478.509 C436.381,478.156 437.161,477.956 437.987,477.956 ZM437.694,15.355 L437.694,15.355 L436.418,13.139 L437.694,15.355 ZM205.761,196.211 L233.080,243.643 C233.945,243.189 234.930,242.930 235.974,242.930 C239.331,242.930 242.068,245.590 242.202,248.922 L299.681,248.922 C299.811,247.026 301.387,245.527 303.313,245.527 C303.885,245.527 304.427,245.660 304.909,245.896 C304.909,245.896 304.909,245.896 304.910,245.896 L326.380,208.619 L325.349,208.619 L281.520,132.520 L241.403,132.520 C241.271,135.410 238.890,137.714 235.974,137.714 C235.075,137.714 234.227,137.495 233.479,137.106 L236.122,132.520 L236.121,132.520 L233.479,137.106 L213.773,171.321 L205.760,185.233 C207.575,186.383 208.779,188.412 208.779,190.721 C208.779,193.032 207.575,195.061 205.761,196.211 ZM436.163,129.607 L415.347,93.463 L407.259,79.422 C406.381,79.884 405.381,80.148 404.320,80.148 C400.911,80.148 398.133,77.443 398.001,74.062 L344.404,74.062 C344.273,78.057 340.999,81.255 336.981,81.255 C335.719,81.255 334.530,80.940 333.488,80.381 L337.128,74.062 L337.127,74.062 L333.488,80.381 L314.779,112.865 L305.622,128.767 C306.752,129.518 307.497,130.805 307.497,132.267 C307.497,133.730 306.752,135.016 305.622,135.765 L325.954,171.067 L335.252,187.212 C335.774,186.952 336.360,186.807 336.981,186.807 C339.054,186.807 340.747,188.425 340.878,190.468 L395.802,190.468 C395.936,185.866 399.698,182.179 404.320,182.179 C405.781,182.179 407.157,182.548 408.360,183.198 L404.173,190.468 L404.174,190.468 L408.360,183.198 L426.521,151.667 L436.163,134.925 C435.321,134.343 434.767,133.369 434.767,132.267 C434.767,131.165 435.321,130.190 436.163,129.607 ZM404.320,199.263 C399.698,199.263 395.936,195.576 395.802,190.975 L340.878,190.975 C340.748,193.020 339.054,194.635 336.981,194.635 C336.360,194.635 335.774,194.491 335.252,194.232 L337.128,190.975 L337.127,190.975 L335.252,194.232 L328.490,205.972 L412.810,205.972 L408.360,198.244 C407.157,198.893 405.781,199.263 404.320,199.263 ZM334.813,193.977 C333.766,193.276 333.076,192.079 333.076,190.721 C333.076,189.365 333.766,188.168 334.813,187.465 L314.341,151.921 L305.183,136.021 C304.620,136.301 303.985,136.461 303.313,136.461 C301.087,136.461 299.267,134.719 299.137,132.520 L284.570,132.520 L326.876,205.972 L327.905,205.972 L334.813,193.977 ZM103.256,19.262 C102.668,19.558 102.004,19.725 101.301,19.725 C98.978,19.725 97.080,17.905 96.947,15.610 L34.107,15.610 L0.585,73.809 L34.107,132.013 L97.397,132.013 C97.527,129.967 99.223,128.347 101.301,128.347 C101.922,128.347 102.510,128.491 103.033,128.751 L101.153,132.013 L101.154,132.013 L103.033,128.751 L123.502,93.211 L130.889,80.384 C128.703,79.017 127.248,76.585 127.248,73.813 C127.248,71.038 128.703,68.604 130.890,67.237 L103.256,19.262 ZM202.307,81.468 C198.169,81.468 194.802,78.174 194.671,74.062 L142.684,74.062 C142.552,78.221 139.149,81.552 134.968,81.552 C133.652,81.552 132.412,81.221 131.328,80.637 L112.767,112.865 L103.471,129.006 C104.520,129.709 105.212,130.907 105.212,132.267 C105.212,133.628 104.521,134.826 103.471,135.528 L132.643,186.178 C133.340,185.819 134.130,185.617 134.968,185.617 C137.697,185.617 139.922,187.764 140.054,190.468 L195.839,190.468 C195.972,187.004 198.816,184.234 202.307,184.234 C203.396,184.234 204.421,184.502 205.321,184.977 L202.160,190.468 L202.161,190.468 L205.321,184.977 L224.508,151.667 L233.041,136.852 C231.536,135.884 230.539,134.191 230.539,132.267 C230.539,130.341 231.536,128.649 233.040,127.681 L213.334,93.463 L205.905,80.566 C204.833,81.141 203.608,81.468 202.307,81.468 ZM305.257,21.362 C304.645,21.562 303.992,21.669 303.313,21.669 C299.920,21.669 297.153,18.980 297.018,15.610 L241.367,15.610 C241.233,18.479 238.869,20.765 235.974,20.765 C235.081,20.765 234.240,20.548 233.499,20.163 L206.343,67.309 C208.505,68.662 209.944,71.067 209.944,73.813 C209.944,76.553 208.505,78.960 206.344,80.311 L224.947,112.611 L233.478,127.425 C234.227,127.038 235.075,126.818 235.974,126.818 C238.890,126.818 241.271,129.120 241.403,132.013 L281.229,132.013 L280.708,131.109 L324.587,54.928 L305.257,21.362 ZM326.726,56.512 L283.759,131.109 L284.279,132.013 L299.137,132.013 C299.267,129.814 301.087,128.072 303.313,128.072 C303.985,128.072 304.620,128.232 305.182,128.513 L325.514,93.211 L333.049,80.127 C330.950,78.814 329.554,76.478 329.554,73.813 C329.554,71.146 330.951,68.808 333.050,67.494 L326.726,56.512 ZM413.111,56.251 L327.161,56.251 L333.490,67.239 C334.531,66.683 335.719,66.367 336.981,66.367 C340.997,66.367 344.269,69.560 344.404,73.556 L398.002,73.556 C398.136,70.173 400.913,67.475 404.320,67.475 C405.381,67.475 406.380,67.736 407.258,68.199 L404.173,73.556 L404.174,73.556 L407.258,68.199 L413.625,57.144 L413.111,56.251 ZM435.426,20.152 L415.397,54.927 L415.397,54.927 L435.426,20.152 ZM455.708,132.013 L456.228,131.110 L456.228,131.110 L456.229,131.109 L456.990,129.786 L456.228,131.108 L456.229,131.109 L456.228,131.109 L434.670,93.681 L413.918,57.653 L407.697,68.454 C409.465,69.577 410.640,71.557 410.640,73.813 C410.640,76.064 409.466,78.043 407.698,79.166 L426.960,112.611 L436.602,129.353 C437.022,129.152 437.491,129.039 437.987,129.039 C439.682,129.039 441.068,130.351 441.197,132.013 L455.707,132.013 L456.228,131.109 L456.228,131.110 L455.708,132.013 ZM434.670,168.541 L455.415,132.520 L441.197,132.520 C441.068,134.182 439.682,135.495 437.987,135.495 C437.491,135.495 437.022,135.383 436.602,135.181 L415.786,171.321 L408.799,183.453 C411.225,184.959 412.841,187.650 412.841,190.721 C412.841,193.793 411.225,196.483 408.799,197.989 L413.254,205.724 L434.670,168.541 ZM426.521,268.579 L434.014,255.569 C431.891,254.239 430.477,251.874 430.477,249.179 C430.477,246.867 431.518,244.798 433.154,243.416 L413.112,208.619 L326.966,208.619 L314.779,229.778 L305.349,246.152 C306.317,246.807 306.955,247.918 306.955,249.179 C306.955,250.437 306.317,251.549 305.349,252.205 L334.317,302.501 C335.114,302.084 336.020,301.848 336.981,301.848 C340.082,301.848 342.614,304.303 342.747,307.380 L401.220,307.380 C401.349,305.778 402.686,304.515 404.320,304.515 C404.796,304.515 405.247,304.624 405.650,304.816 L404.173,307.380 L404.174,307.380 L405.650,304.816 L426.521,268.579 ZM433.719,372.992 C431.419,371.559 429.888,369.002 429.888,366.092 C429.888,363.178 431.419,360.621 433.719,359.188 L437.694,366.091 L437.694,366.091 L437.695,366.092 L437.694,366.089 L437.694,366.091 L433.719,359.188 L415.347,327.288 L405.650,310.451 C405.247,310.643 404.796,310.751 404.320,310.751 C402.686,310.751 401.349,309.489 401.220,307.888 L342.747,307.888 C342.614,310.964 340.082,313.417 336.981,313.417 C336.020,313.417 335.114,313.183 334.317,312.766 L305.952,362.018 C307.279,362.884 308.156,364.385 308.156,366.092 C308.156,367.796 307.278,369.297 305.951,370.163 L334.160,419.141 C335.004,418.699 335.963,418.447 336.981,418.447 C340.256,418.447 342.927,421.043 343.059,424.292 L399.796,424.292 C399.928,421.902 401.903,420.007 404.320,420.007 C405.054,420.007 405.748,420.183 406.361,420.494 L404.173,424.292 L404.174,424.292 L406.361,420.494 L433.719,372.992 Z"/>
</svg>